C:\Users\r0593348\3dpredictsim\Results\Batchsim_tmt_linear_v2\Pog_s1_tmt_aCst_d05_k250_ig24_act_GRF.mot
nRows=20
nColumns=19

name C:\Users\r0593348\3dpredictsim\Results\Batchsim_tmt_linear_v2\Pog_s1_tmt_aCst_d05_k250_ig24_act_GRF.mot
datacolumns 19
datarows 20
range 0.6690520085 0.9232917717
endheader
time 	ground_force_vx	ground_force_vy	ground_force_vz	ground_force_px	ground_force_py	ground_force_pz	1_ground_force_vx	1_ground_force_vy	1_ground_force_vz	1_ground_force_px	1_ground_force_py	1_ground_force_pz	ground_torque_x	ground_torque_y	ground_torque_z	1_ground_torque_x	1_ground_torque_y	1_ground_torque_z
        0.6690520085	       41.7196457079	      246.0985936389	        7.2972011520	        0.4734600902	        0.0000000000	        0.0436248651	      -74.0411844691	       64.2347341435	      -16.6959245072	        1.0637795718	        0.0000000000	       -0.0488528040	        0.0000000000	        0.0000000000	        0.0000000000	        0.0000000000	        0.0000000000	        0.0000000000	
        0.6824330487	       28.2047676039	      218.9138925870	       18.3178153518	        0.4755810440	        0.0000000000	        0.0435129450	     -129.1959384736	      225.2468958296	      -43.9209706319	        1.0704867052	        0.0000000000	       -0.0476565621	        0.0000000000	        0.0000000000	        0.0000000000	        0.0000000000	        0.0000000000	        0.0000000000	
        0.6958140888	       28.3650389204	      180.2351008903	       17.2036767620	        0.4761321707	        0.0000000000	        0.0435054744	     -105.5734393123	      506.1246293012	       -7.4119481708	        1.0753192260	        0.0000000000	       -0.0469262702	        0.0000000000	        0.0000000000	        0.0000000000	        0.0000000000	        0.0000000000	        0.0000000000	
        0.7091951290	       22.9392523589	      130.3951110173	       15.9303352986	        0.4765838489	        0.0000000000	        0.0436345557	     -155.7402957594	      798.8992490804	        8.8992948080	        1.0864896527	        0.0000000000	       -0.0494785188	        0.0000000000	        0.0000000000	        0.0000000000	        0.0000000000	        0.0000000000	        0.0000000000	
        0.7225761692	        7.2000078782	       67.0566587635	       17.8573290506	        0.4763897218	        0.0000000000	        0.0447157875	     -207.4037467229	      966.6199814474	       11.3738367848	        1.0970799579	        0.0000000000	       -0.0522360705	        0.0000000000	        0.0000000000	        0.0000000000	        0.0000000000	        0.0000000000	        0.0000000000	
        0.7359572093	      -11.4470939342	       14.2977615836	        5.8741069038	        0.4709484712	        0.0000000000	        0.0447803145	     -201.9295167180	      958.7857084706	       12.3589945717	        1.1038154007	        0.0000000000	       -0.0537440970	        0.0000000000	        0.0000000000	        0.0000000000	        0.0000000000	        0.0000000000	        0.0000000000	
        0.7493382495	      -15.3580825349	       12.1186746750	       -0.2964116244	        0.4795683163	        0.0000000000	        0.0415731455	     -178.4385167738	      880.6976196263	       11.3157066534	        1.1087687032	        0.0000000000	       -0.0547015199	        0.0000000000	        0.0000000000	        0.0000000000	        0.0000000000	        0.0000000000	        0.0000000000	
        0.7627192897	      -19.5919909938	       13.3187321216	       -0.5371544806	        0.4978078961	        0.0000000000	        0.0426114171	     -153.7082357537	      810.0158624994	       11.1866572907	        1.1134274776	        0.0000000000	       -0.0553369767	        0.0000000000	        0.0000000000	        0.0000000000	        0.0000000000	        0.0000000000	        0.0000000000	
        0.7761003298	      -19.8516926254	       11.8907826779	       -0.9208914714	        0.5211891862	        0.0000000000	        0.0438593208	     -137.1129973699	      767.4870474464	       12.3316469831	        1.1191061458	        0.0000000000	       -0.0560169941	        0.0000000000	        0.0000000000	        0.0000000000	        0.0000000000	        0.0000000000	        0.0000000000	
        0.7894813700	      -17.3292621591	        9.3860710513	       -0.9981168808	        0.0000000000	        0.0000000000	        0.0000000000	     -125.8354215172	      739.3384669742	       12.9856403511	        1.1255824639	        0.0000000000	       -0.0563023177	        0.0000000000	        0.0000000000	        0.0000000000	        0.0000000000	        0.0000000000	        0.0000000000	
        0.8028624102	      -13.7805096594	        6.9253144007	       -0.8421624781	        0.0000000000	        0.0000000000	        0.0000000000	     -114.2724042278	      710.4360100419	       12.9023380843	        1.1315133284	        0.0000000000	       -0.0564255688	        0.0000000000	        0.0000000000	        0.0000000000	        0.0000000000	        0.0000000000	        0.0000000000	
        0.8162434504	      -10.6541633747	        5.1230805606	       -0.5418745942	        0.0000000000	        0.0000000000	        0.0000000000	     -102.4605704417	      681.9516600642	       12.3805733257	        1.1367067490	        0.0000000000	       -0.0565025470	        0.0000000000	        0.0000000000	        0.0000000000	        0.0000000000	        0.0000000000	        0.0000000000	
        0.8296244905	       -8.2889725925	        3.8530994580	       -0.3293316521	        0.0000000000	        0.0000000000	        0.0000000000	      -92.6170439452	      657.6699072695	       12.8606142309	        1.1414612834	        0.0000000000	       -0.0564921033	        0.0000000000	        0.0000000000	        0.0000000000	        0.0000000000	        0.0000000000	        0.0000000000	
        0.8430055307	       -6.4377142829	        2.9174509785	       -0.1868120873	        0.0000000000	        0.0000000000	        0.0000000000	      -83.3093808790	      637.5292825321	       13.7889866950	        1.1458379151	        0.0000000000	       -0.0564630141	        0.0000000000	        0.0000000000	        0.0000000000	        0.0000000000	        0.0000000000	        0.0000000000	
        0.8563865709	       -4.9131299901	        2.1855049469	       -0.0957950350	        0.0000000000	        0.0000000000	        0.0000000000	      -74.7032398132	      619.7181393457	       15.0137699334	        1.1499412342	        0.0000000000	       -0.0564362038	        0.0000000000	        0.0000000000	        0.0000000000	        0.0000000000	        0.0000000000	        0.0000000000	
        0.8697676110	       -3.6275348636	        1.5909445315	       -0.0403530485	        0.0000000000	        0.0000000000	        0.0000000000	      -67.0476143292	      604.0973512300	       16.3202819239	        1.1537845954	        0.0000000000	       -0.0564021134	        0.0000000000	        0.0000000000	        0.0000000000	        0.0000000000	        0.0000000000	        0.0000000000	
        0.8831486512	       -2.6280620121	        1.1389708275	       -0.0113282272	        0.0000000000	        0.0000000000	        0.0000000000	      -60.2072769871	      590.4378102653	       17.3286262965	        1.1573784747	        0.0000000000	       -0.0563554737	        0.0000000000	        0.0000000000	        0.0000000000	        0.0000000000	        0.0000000000	        0.0000000000	
        0.8965296914	       -1.9762102769	        0.8462039820	        0.0010798503	        0.0000000000	        0.0000000000	        0.0000000000	      -54.0606976965	      578.3312104771	       18.2271506964	        1.1606877133	        0.0000000000	       -0.0562910057	        0.0000000000	        0.0000000000	        0.0000000000	        0.0000000000	        0.0000000000	        0.0000000000	
        0.9099107315	       -1.6006766634	        0.6764739407	        0.0056968928	        0.0000000000	        0.0000000000	        0.0000000000	      -48.4183511715	      567.5808732759	       19.0589194577	        1.1636615829	        0.0000000000	       -0.0562119015	        0.0000000000	        0.0000000000	        0.0000000000	        0.0000000000	        0.0000000000	        0.0000000000	
        0.9232917717	       -1.4032783350	        0.5850979642	        0.0073668915	        0.0000000000	        0.0000000000	        0.0000000000	      -43.0401621249	      557.8385802120	       19.7718725632	        1.1662544318	        0.0000000000	       -0.0561220129	        0.0000000000	        0.0000000000	        0.0000000000	        0.0000000000	        0.0000000000	        0.0000000000	
